<svg width="165" height="33" viewBox="0 0 165 33" fill="none" xmlns="http://www.w3.org/2000/svg">
<path d="M35.1389 2.68928C32.4537 1.43295 29.5826 0.519898 26.5809 0C26.2123 0.666491 25.7816 1.56294 25.4847 2.27605C22.2938 1.79619 19.1323 1.79619 16.0001 2.27605C15.7032 1.56294 15.2628 0.666491 14.8908 0C11.8859 0.519898 9.01147 1.4363 6.32629 2.69593C0.910251 10.8803 -0.557948 18.8613 0.176153 26.7291C3.76835 29.4116 7.24963 31.0412 10.6722 32.1076C11.5172 30.9445 12.2709 29.7082 12.9201 28.4053C11.6836 27.9354 10.4992 27.3556 9.38017 26.6824C9.67705 26.4625 9.96745 26.2325 10.248 25.9959C17.0735 29.1884 24.4896 29.1884 31.2335 25.9959C31.5174 26.2325 31.8077 26.4625 32.1014 26.6824C30.979 27.3589 29.7914 27.9387 28.5549 28.4086C29.2041 29.7082 29.9546 30.9479 30.8028 32.1109C34.2287 31.0445 37.7132 29.415 41.3054 26.7291C42.1667 17.6084 39.8339 9.7006 35.1389 2.68928ZM13.85 21.8905C11.8011 21.8905 10.1208 19.9777 10.1208 17.6483C10.1208 15.319 11.7652 13.4029 13.85 13.4029C15.9349 13.4029 17.6151 15.3156 17.5792 17.6483C17.5825 19.9777 15.9349 21.8905 13.85 21.8905ZM27.6315 21.8905C25.5826 21.8905 23.9023 19.9777 23.9023 17.6483C23.9023 15.319 25.5467 13.4029 27.6315 13.4029C29.7164 13.4029 31.3967 15.3156 31.3608 17.6483C31.3608 19.9777 29.7164 21.8905 27.6315 21.8905Z" fill="#A05BF8"/>
<path d="M55.7423 8.19173H64.6491C66.7962 8.19173 68.6102 8.53496 70.0983 9.21811C71.5824 9.90121 72.6952 10.8543 73.4327 12.0739C74.1697 13.2936 74.5416 14.6899 74.5416 16.2627C74.5416 17.8023 74.1566 19.1986 73.3867 20.4482C72.6168 21.7012 71.4454 22.6909 69.8697 23.4207C68.294 24.1505 66.3425 24.517 64.01 24.517H55.7423V8.19173ZM63.9184 20.3683C65.3639 20.3683 66.4767 19.9984 67.2529 19.2619C68.0296 18.5221 68.418 17.5157 68.418 16.2394C68.418 15.0564 68.0717 14.1133 67.3802 13.4069C66.6888 12.7004 65.6414 12.3439 64.2414 12.3439H61.4551V20.3683H63.9184Z" fill="#A05BF8"/>
<path d="M87.8763 24.4972C86.643 24.1706 85.5302 23.6974 84.5419 23.0742V19.202C85.2891 19.7918 86.2904 20.2784 87.5465 20.6616C88.8026 21.0415 90.0166 21.2314 91.1909 21.2314C91.739 21.2314 92.1536 21.1581 92.4339 21.0114C92.7148 20.8649 92.8552 20.6882 92.8552 20.485C92.8552 20.2517 92.7802 20.0584 92.6267 19.9018C92.4731 19.7452 92.1763 19.6152 91.7362 19.5052L88.9954 18.8754C87.426 18.5022 86.3132 17.9857 85.6513 17.3225C84.9888 16.6627 84.659 15.7963 84.659 14.7233C84.659 13.8202 84.9462 13.0371 85.5273 12.3673C86.1045 11.6975 86.9267 11.1809 87.9935 10.8177C89.0608 10.4511 90.3067 10.2679 91.739 10.2679C93.0179 10.2679 94.1893 10.4078 95.2566 10.6877C96.3233 10.9677 97.2041 11.3242 97.9058 11.7608V15.4231C97.1876 14.9865 96.3654 14.6433 95.426 14.3833C94.4895 14.1268 93.5274 14.0001 92.5351 14.0001C91.1027 14.0001 90.3885 14.25 90.3885 14.7466C90.3885 14.9799 90.4994 15.1531 90.7212 15.2698C90.943 15.3864 91.3507 15.5064 91.9415 15.633L94.2251 16.0529C95.7166 16.3162 96.8288 16.7794 97.5595 17.4391C98.2908 18.099 98.6558 19.0754 98.6558 20.3683C98.6558 21.7846 98.0525 22.9076 96.8419 23.7407C95.6313 24.5738 93.9152 24.9903 91.6901 24.9903C90.3817 24.987 89.1097 24.8237 87.8763 24.4972Z" fill="#A05BF8"/>
<path d="M104.047 24.0071C102.739 23.3539 101.75 22.4676 101.091 21.3479C100.432 20.2282 100.099 18.9686 100.099 17.5689C100.099 16.1694 100.442 14.9164 101.127 13.8134C101.812 12.7103 102.817 11.8439 104.142 11.2141C105.466 10.5843 107.049 10.271 108.892 10.271C111.176 10.271 113.072 10.7609 114.579 11.7406V16.0094C114.047 15.6362 113.427 15.3329 112.719 15.0997C112.011 14.8664 111.254 14.7497 110.445 14.7497C109.029 14.7497 107.923 15.013 107.124 15.5428C106.324 16.0727 105.923 16.7625 105.923 17.6189C105.923 18.4587 106.311 19.1452 107.088 19.685C107.865 20.2215 108.99 20.4915 110.468 20.4915C111.228 20.4915 111.979 20.3781 112.719 20.1549C113.456 19.9283 114.093 19.6517 114.624 19.3251V23.4539C112.951 24.4803 111.01 24.9935 108.801 24.9935C106.941 24.9868 105.355 24.6603 104.047 24.0071Z" fill="#A05BF8"/>
<path d="M120.275 24.0074C118.957 23.3542 117.953 22.4611 117.26 21.3248C116.569 20.1884 116.22 18.9222 116.22 17.5225C116.22 16.123 116.566 14.8733 117.26 13.777C117.955 12.6806 118.954 11.8208 120.266 11.1977C121.574 10.5745 123.137 10.2646 124.947 10.2646C126.758 10.2646 128.321 10.5745 129.629 11.1977C130.938 11.8208 131.936 12.6739 132.621 13.7636C133.307 14.8533 133.649 16.103 133.649 17.5192C133.649 18.9188 133.307 20.1851 132.621 21.3214C131.936 22.4578 130.934 23.3509 129.616 24.0041C128.298 24.6572 126.742 24.9838 124.944 24.9838C123.146 24.9838 121.59 24.6605 120.275 24.0074ZM127.215 19.8685C127.77 19.3021 128.05 18.5523 128.05 17.6192C128.05 16.6861 127.773 15.943 127.215 15.3931C126.661 14.84 125.903 14.5634 124.944 14.5634C123.969 14.5634 123.205 14.84 122.647 15.3931C122.093 15.9464 121.815 16.6861 121.815 17.6192C121.815 18.5523 122.093 19.3021 122.647 19.8685C123.202 20.4351 123.969 20.7216 124.944 20.7216C125.903 20.7183 126.661 20.4351 127.215 19.8685Z" fill="#A05BF8"/>
<path d="M147.372 11.131V16.1696C146.791 15.7797 146.04 15.5864 145.111 15.5864C143.893 15.5864 142.954 15.963 142.301 16.7161C141.645 17.4692 141.319 18.6422 141.319 20.2284V24.5205H135.724V10.8744H141.205V15.2132C141.508 13.6269 142.001 12.4573 142.68 11.7008C143.355 10.9477 144.229 10.5712 145.293 10.5712C146.099 10.5712 146.791 10.7578 147.372 11.131Z" fill="#A05BF8"/>
<path d="M165.963 7.72516V24.5204H160.367V21.4646C159.894 22.6143 159.176 23.4907 158.211 24.0905C157.244 24.687 156.05 24.9869 154.634 24.9869C153.369 24.9869 152.266 24.6737 151.323 24.0439C150.38 23.4141 149.653 22.551 149.14 21.4546C148.631 20.3582 148.373 19.1186 148.373 17.7324C148.357 16.3028 148.628 15.0198 149.186 13.8834C149.741 12.7471 150.527 11.8607 151.538 11.2242C152.55 10.5877 153.705 10.2678 155 10.2678C157.666 10.2678 159.454 11.4508 160.367 13.8134V7.72516H165.963ZM159.532 19.7751C160.103 19.2086 160.387 18.4721 160.387 17.5724C160.387 16.7026 160.109 15.9928 159.555 15.4497C159 14.9065 158.24 14.6332 157.284 14.6332C156.341 14.6332 155.587 14.9098 155.023 15.463C154.458 16.0162 154.178 16.7326 154.178 17.619C154.178 18.5055 154.458 19.2286 155.023 19.7884C155.587 20.3482 156.331 20.6282 157.261 20.6282C158.204 20.6249 158.961 20.3416 159.532 19.7751Z" fill="#A05BF8"/>
<path d="M79.2568 12.327C80.7972 12.327 82.0465 11.1812 82.0465 9.76771C82.0465 8.35427 80.7972 7.20848 79.2568 7.20848C77.7158 7.20848 76.4671 8.35427 76.4671 9.76771C76.4671 11.1812 77.7158 12.327 79.2568 12.327Z" fill="#A05BF8"/>
<path d="M76.4647 14.09C78.174 14.8431 80.295 14.8764 82.0435 14.09V24.5937H76.4647V14.09Z" fill="#A05BF8"/>
</svg>
