<svg width="157" height="47" viewBox="0 0 157 47" fill="none" xmlns="http://www.w3.org/2000/svg">
<g clip-path="url(#clip0_296_9785)">
<path d="M43.8364 13.6357H51.2532C55.9816 13.6357 59.8877 16.3715 59.8877 22.6181V23.9306C59.8877 30.2246 56.2346 33.0553 51.3955 33.0553H43.8364V13.6357ZM47.9797 17.1622V29.513H51.1583C53.8467 29.513 55.6495 27.7576 55.6495 23.8516V22.8237C55.6495 18.9176 53.7518 17.1622 51.016 17.1622H47.9797ZM62.0858 17.352H65.4067L65.9444 21.005C66.577 18.5222 68.19 17.1939 71.1156 17.1939H72.1435V21.3846H70.4356C67.0672 21.3846 66.2449 22.5548 66.2449 25.8758V33.1028H62.1491V17.352H62.0858ZM72.9659 25.5437V25.1009C72.9659 19.8348 76.3342 16.9567 80.9203 16.9567C85.6013 16.9567 88.8748 19.8348 88.8748 25.1009V25.5437C88.8748 30.7149 85.6961 33.4981 80.9203 33.4981C75.844 33.4507 72.9659 30.7307 72.9659 25.5437ZM84.684 25.4962V25.1009C84.684 22.1753 83.2133 20.4199 80.8729 20.4199C78.5798 20.4199 77.0617 22.033 77.0617 25.1009V25.4962C77.0617 28.3269 78.5324 29.94 80.8729 29.94C83.2133 29.8925 84.684 28.3269 84.684 25.4962ZM91.0255 17.352H94.4413L94.8366 20.325C95.659 18.3325 97.4143 16.9567 100.008 16.9567C104.009 16.9567 106.65 19.8348 106.65 25.1641V25.6069C106.65 30.7781 103.724 33.5139 100.008 33.5139C97.525 33.5139 95.8171 32.3911 94.979 30.5883V38.5428H90.978L91.0255 17.352ZM102.491 25.4962V25.1483C102.491 22.0171 100.878 20.4674 98.7269 20.4674C96.4339 20.4674 94.9157 22.2227 94.9157 25.1483V25.4488C94.9157 28.232 96.3864 29.9874 98.6795 29.9874C101.036 29.94 102.491 28.4376 102.491 25.4962ZM112.706 30.193L112.359 33.0711H108.848V12.0859H112.849V20.1353C113.734 18.0795 115.49 16.9567 117.973 16.9567C121.736 17.0041 124.52 19.5976 124.52 24.8162V25.3065C124.52 30.5251 121.879 33.5139 117.878 33.5139C115.237 33.4507 113.529 32.233 112.706 30.193ZM120.313 25.3065V24.9111C120.313 22.033 118.747 20.4199 116.549 20.4199C114.304 20.4199 112.738 22.2227 112.738 24.9585V25.3065C112.738 28.2321 114.256 29.94 116.502 29.94C118.906 29.94 120.313 28.4376 120.313 25.3065ZM126.275 25.5437V25.1009C126.275 19.8348 129.643 16.9567 134.229 16.9567C138.91 16.9567 142.184 19.8348 142.184 25.1009V25.5437C142.184 30.7149 138.958 33.4981 134.229 33.4981C129.153 33.4507 126.275 30.7307 126.275 25.5437ZM138.025 25.4962V25.1009C138.025 22.1753 136.554 20.4199 134.214 20.4199C131.921 20.4199 130.402 22.033 130.402 25.1009V25.4962C130.402 28.3269 131.873 29.94 134.214 29.94C136.57 29.8925 138.025 28.3269 138.025 25.4962ZM147.545 24.9111L142.026 17.352H146.754L149.933 22.0804L153.159 17.352H157.84L152.242 24.8637L158.14 33.0711H153.507L149.901 27.8525L146.39 33.0711H141.551L147.545 24.9111Z" fill="#A05BF8"/>
<path d="M18.3443 13.6354L9.17213 19.4866L18.3443 25.3377L9.17213 31.1889L0 25.3061L9.17213 19.4549L0 13.6354L9.17213 7.78418L18.3443 13.6354ZM9.12469 33.0708L18.2968 27.2196L27.469 33.0708L18.2968 38.922L9.12469 33.0708ZM18.3443 25.3061L27.5164 19.4549L18.3443 13.6354L27.469 7.78418L36.6411 13.6354L27.469 19.4866L36.6411 25.3377L27.469 31.1889L18.3443 25.3061Z" fill="#A05BF8"/>
</g>
<defs>
<clipPath id="clip0_296_9785">
<rect width="158.608" height="46.7067" fill="white"/>
</clipPath>
</defs>
</svg>
