<svg width="163" height="47" viewBox="0 0 163 47" fill="none" xmlns="http://www.w3.org/2000/svg">
<g clip-path="url(#clip0_296_9776)">
<path d="M162.307 19.7887C163.268 20.8085 163.752 22.1911 163.752 23.9429V33.1585H160.186V24.9877C160.186 23.9554 159.894 23.1421 159.311 22.5477C158.728 21.9534 157.941 21.6531 156.942 21.6531C155.764 21.6719 154.827 22.0785 154.139 22.8668C153.45 23.6551 153.103 24.6686 153.103 25.9011V33.1585H149.562V12.6815H153.103V21.2089C154.102 19.2757 155.857 18.2934 158.362 18.2559C160.025 18.2559 161.346 18.7627 162.307 19.7887ZM141.685 21.4279C140.507 21.4279 139.545 21.8345 138.814 22.6416C138.082 23.4549 137.71 24.4997 137.71 25.7885C137.71 27.1149 138.082 28.1784 138.814 28.9918C139.552 29.7988 140.507 30.2055 141.691 30.2055C143.434 30.2055 144.743 29.6237 145.617 28.4662L147.825 30.3181C147.174 31.2753 146.281 32.0386 145.239 32.5266C144.166 33.0396 142.926 33.2961 141.505 33.2961C140.073 33.2961 138.795 32.9833 137.679 32.3577C136.581 31.7508 135.675 30.8311 135.08 29.7238C134.46 28.5914 134.15 27.29 134.15 25.8198C134.15 24.3308 134.466 23.0107 135.092 21.8721C135.694 20.7522 136.606 19.8387 137.71 19.2256C138.826 18.6 140.11 18.2872 141.567 18.2872C142.895 18.2872 144.079 18.5187 145.121 18.9879C146.163 19.4571 147.013 20.1265 147.67 20.9899L145.518 23.0608C144.519 21.9722 143.248 21.4279 141.685 21.4279ZM131.886 18.3935V33.1585H128.345V30.8124C127.842 31.6007 127.141 32.2451 126.317 32.6768C125.492 33.1084 124.543 33.3274 123.47 33.3274C122.087 33.3274 120.877 33.0083 119.829 32.3765C118.787 31.7446 117.969 30.8499 117.392 29.6987C116.815 28.5476 116.524 27.2275 116.524 25.7385C116.524 24.2682 116.815 22.9669 117.398 21.8345C117.975 20.7021 118.793 19.8262 119.835 19.2006C120.877 18.575 122.081 18.2621 123.445 18.2621C124.518 18.2621 125.473 18.4811 126.304 18.9128C127.135 19.3445 127.842 19.9826 128.345 20.7772V18.406L131.886 18.3935ZM127.061 29.2233C127.805 28.4975 128.233 27.534 128.345 26.3391V25.2943C128.233 24.0931 127.811 23.1358 127.067 22.4101C126.323 21.6844 125.38 21.3215 124.233 21.3215C123.017 21.3215 122.025 21.7407 121.262 22.579C120.499 23.4174 120.108 24.4997 120.09 25.8198C120.108 27.1462 120.499 28.2222 121.262 29.0606C122.025 29.8989 123.017 30.3181 124.233 30.3181C125.374 30.3181 126.317 29.9552 127.061 29.2233ZM112.957 20.2955C114.13 21.6406 114.713 23.5237 114.713 25.9512C114.713 26.4267 114.7 26.7895 114.688 27.0273H103.927C104.163 28.0783 104.647 28.8979 105.385 29.4985C106.117 30.0991 107.022 30.3932 108.095 30.3932C108.827 30.3932 109.559 30.2493 110.235 29.9615C110.911 29.6862 111.519 29.267 112.021 28.7353L113.925 30.7498C113.187 31.5694 112.281 32.2075 111.264 32.6267C110.222 33.0709 109.063 33.2899 107.791 33.2899C106.303 33.2899 104.988 32.9771 103.853 32.3514C102.743 31.7508 101.825 30.8311 101.223 29.7175C100.603 28.5851 100.299 27.2838 100.299 25.8136C100.299 24.3433 100.609 23.0357 101.242 21.8971C101.85 20.7772 102.761 19.8513 103.871 19.2319C105 18.5937 106.278 18.2809 107.71 18.2809C110.036 18.2809 111.785 18.9566 112.957 20.2955ZM111.475 24.6311C111.438 23.5425 111.084 22.6791 110.415 22.0347C109.745 21.3903 108.852 21.065 107.741 21.065C106.706 21.065 105.837 21.3841 105.137 22.016C104.436 22.6478 104.008 23.5175 103.84 24.6248H111.475V24.6311ZM96.4476 19.0442C97.2911 18.5374 98.2772 18.2747 99.406 18.2559V21.7344C97.8989 21.6406 96.6957 21.9972 95.7964 22.798C94.8971 23.5988 94.4444 24.6812 94.4444 26.0388V33.1585H90.903V18.3935H94.4444V21.2339C94.9405 20.2767 95.6041 19.5447 96.4476 19.0442ZM88.2486 32.2451C87.0888 32.9645 85.867 33.3212 84.5956 33.3212C83.3428 33.3212 82.3132 32.9458 81.5194 32.2013C80.7193 31.4568 80.3224 30.3557 80.3224 28.9042V14.94L83.8389 14.5146V18.9941H88.0067V21.6155H83.8389V28.2723C83.8389 28.9542 83.963 29.436 84.2172 29.7175C84.4715 30.0053 84.8498 30.1429 85.3584 30.1429C85.9042 30.1429 86.5926 29.9427 87.4299 29.5361L88.2486 32.2451ZM73.7606 18.3935H77.2772V26.6707C77.2772 31.5006 73.9467 33.2961 70.5666 33.2961C67.1865 33.2961 63.8622 31.5006 63.8622 26.6707V18.3935H67.3788V26.7958C67.3788 28.6477 68.7432 30.1492 70.5728 30.1492C72.4024 30.1492 73.7668 28.6477 73.7668 26.7958L73.7606 18.3935ZM56.5748 14.89C58.0943 15.7221 59.3595 16.9546 60.2402 18.4498C61.1333 19.9576 61.5737 21.6343 61.5737 23.4737C61.5737 25.313 61.1271 26.9897 60.2402 28.51C59.3595 30.0178 58.0943 31.2628 56.5748 32.1137C55.0181 32.9958 53.3002 33.44 51.4086 33.44C49.5169 33.44 47.799 32.9958 46.2485 32.1137C44.729 31.2628 43.4638 30.0178 42.5831 28.51C41.6962 26.9897 41.2496 25.313 41.2496 23.4737C41.2496 21.6343 41.6962 19.9576 42.5831 18.4498C43.4638 16.9483 44.729 15.7221 46.2485 14.89C47.799 14.0266 49.5231 13.5949 51.4086 13.5949C53.3002 13.5887 55.0243 14.0203 56.5748 14.89ZM48.2269 17.7742C47.2408 18.3372 46.4221 19.1568 45.8577 20.1453C45.2747 21.1526 44.9833 22.2599 44.9833 23.4737C44.9833 24.6874 45.2809 25.801 45.8701 26.8146C46.4407 27.8093 47.2594 28.6352 48.2393 29.217C49.2316 29.8051 50.3046 30.0991 51.4706 30.0991C52.5931 30.1054 53.6971 29.7988 54.6584 29.217C55.6321 28.6352 56.4322 27.8093 56.9904 26.8146C57.5672 25.7948 57.8587 24.6436 57.8462 23.4737C57.8462 22.2599 57.561 21.1526 56.9904 20.1453C56.4384 19.1631 55.6321 18.3435 54.6584 17.7742C53.6909 17.1986 52.5931 16.8983 51.4706 16.9045C50.3294 16.8983 49.213 17.1986 48.2269 17.7742ZM14.5623 5.31152C19.5798 5.31152 27.1586 6.86935 30.6814 10.4417C31.5745 11.3489 32.7467 13.1194 32.7467 15.7221C32.7467 20.3393 29.0689 27.4277 25.0127 31.5444C22.9165 33.6715 19.5798 36.4493 15.0895 36.4493C10.6985 36.4493 7.34939 33.4338 6.38188 32.4453C2.66067 28.679 0 22.9607 0 17.6365C0 14.2706 0.948909 11.3301 3.3615 8.88389C5.59422 6.62535 9.44568 5.31152 14.5623 5.31152ZM20.7706 23.7364C22.4637 22.0222 22.9227 19.9076 22.9227 18.7439C22.9227 17.8993 22.7056 16.6668 21.6637 15.6095C20.0697 13.9891 18.296 13.5324 16.3733 13.5324C13.9359 13.5324 12.2986 14.3144 11.2071 15.4155C10.3512 16.2914 9.61313 17.6177 9.61313 19.5134C9.61313 21.4028 10.6117 23.2297 11.6908 24.3308C12.6955 25.3443 14.2708 26.0951 15.8524 26.0951C17.4401 26.0951 19.0774 25.4507 20.7706 23.7364Z" fill="#A05BF8"/>
</g>
<defs>
<clipPath id="clip0_296_9776">
<rect width="164.447" height="46.7067" fill="white"/>
</clipPath>
</defs>
</svg>
