<svg width="155" height="47" viewBox="0 0 155 47" fill="none" xmlns="http://www.w3.org/2000/svg">
<g clip-path="url(#clip0_296_9778)">
<path d="M10.0699 14.4497L8.76807 19.2411L16.2193 14.4224L11.346 32.6045L16.2953 32.6086L23.4944 5.75293" fill="#A05BF8"/>
<path d="M2.0498 24.9647L0 32.6085H10.144L14.2949 17.059L2.0498 24.9647ZM37.2865 18.2351C37.0386 19.1567 36.5608 19.8336 35.8484 20.2659C35.1376 20.6973 34.1399 20.9139 32.8522 20.9139H28.7609L30.1974 15.558H34.2887C35.5748 15.558 36.4584 15.7729 36.9377 16.2109C37.4171 16.649 37.5328 17.3185 37.2865 18.2442V18.2351ZM41.5225 18.1285C42.0432 16.1944 41.8283 14.7066 40.8762 13.6652C39.9257 12.632 38.2577 12.1113 35.8773 12.1113H26.7466L21.2502 32.6176H25.6862L27.9013 24.3523H30.8107C31.4636 24.3523 31.9777 24.4597 32.353 24.6664C32.729 24.8813 32.9497 25.2532 33.0175 25.7904L33.8093 32.6176H38.5619L37.7915 26.2533C37.6345 24.8317 36.984 23.9969 35.8409 23.7489C37.2981 23.3274 38.5189 22.6248 39.5025 21.6495C40.4792 20.6813 41.177 19.4679 41.5225 18.1368V18.1285ZM52.3055 25.278C51.9335 26.6666 51.3632 27.7163 50.5921 28.4519C49.8201 29.1875 48.8977 29.5512 47.8215 29.5512C46.7255 29.5512 45.9825 29.1958 45.5899 28.4767C45.1965 27.7576 45.1832 26.7162 45.5486 25.3524C45.9139 23.9886 46.4966 22.9224 47.2983 22.1537C48.1001 21.385 49.0374 21.0007 50.1135 21.0007C51.188 21.0007 51.9236 21.3726 52.2955 22.1107C52.6758 22.8521 52.684 23.9126 52.3121 25.2929L52.3055 25.278ZM54.2495 18.021L53.694 20.0956C53.4543 19.3518 52.989 18.7566 52.3013 18.3103C51.612 17.8723 50.759 17.6491 49.7416 17.6491C48.4935 17.6491 47.295 17.9714 46.1461 18.6161C44.9973 19.2608 43.9889 20.17 43.1293 21.3437C42.2697 22.5174 41.6415 23.8481 41.2365 25.3441C40.8398 26.8484 40.7571 28.1626 40.9968 29.3032C41.2448 30.4521 41.7655 31.3282 42.5673 31.9398C43.3773 32.5597 44.4104 32.8656 45.675 32.8656C46.6799 32.8707 47.6734 32.6533 48.5844 32.2291C49.4851 31.8229 50.2862 31.2249 50.9318 30.4769L50.3532 32.6391H54.6429L58.5598 18.0285H54.2619L54.2495 18.021ZM73.9747 18.021H61.4998L60.6278 21.2776H67.8864L58.2904 29.5677L57.4705 32.6259H70.3478L71.2198 29.3693H63.4422L73.1853 20.9552L73.9747 18.021ZM84.9552 25.2532C84.5692 26.6914 83.9964 27.7725 83.2401 28.4767C82.4838 29.1875 81.568 29.5429 80.4927 29.5429C78.2445 29.5429 77.5056 28.113 78.2726 25.2532C78.6528 23.8316 79.2281 22.7629 79.9968 22.0429C80.7655 21.3206 81.697 20.9602 82.7921 20.9602C83.8666 20.9602 84.5923 21.3181 84.9659 22.0388C85.3395 22.7579 85.3362 23.8299 84.9552 25.2515V25.2532ZM87.4662 18.5707C86.4785 17.9557 85.218 17.6483 83.6806 17.6483C82.1243 17.6483 80.6836 17.9541 79.3579 18.5657C78.0376 19.1735 76.8773 20.0808 75.9691 21.2156C75.0351 22.3645 74.3631 23.7117 73.9507 25.2491C73.5457 26.7806 73.4961 28.1254 73.8102 29.2768C74.1243 30.4256 74.7855 31.31 75.7773 31.9217C76.7774 32.5383 78.0503 32.8449 79.6124 32.8449C81.1498 32.8449 82.5797 32.5358 83.8939 31.9208C85.2081 31.3026 86.3322 30.4248 87.2661 29.2677C88.2001 28.1155 88.8696 26.7715 89.2829 25.2342C89.6961 23.6968 89.7457 22.3545 89.4317 21.2007C89.1176 20.0518 88.4646 19.1674 87.481 18.5517L87.4662 18.5707ZM102.78 21.9239L103.879 17.9483C103.507 17.7582 103.02 17.659 102.408 17.659C101.425 17.659 100.482 17.902 99.5732 18.3946C98.7913 18.8129 98.1268 19.403 97.5647 20.1419L98.135 18.0012L96.8895 18.0062H93.8313L89.8887 32.611H94.2388L96.2844 24.9763C96.582 23.8663 97.1176 22.9926 97.8904 22.3727C98.6591 21.7503 99.6178 21.4387 100.775 21.4387C101.486 21.4387 102.147 21.6016 102.775 21.9264L102.78 21.9239ZM114.884 25.3235C114.512 26.6872 113.95 27.7287 113.181 28.4477C112.413 29.1701 111.487 29.5305 110.412 29.5305C109.338 29.5305 108.602 29.1668 108.214 28.4395C107.817 27.708 107.809 26.6542 108.181 25.2689C108.553 23.8845 109.123 22.8224 109.908 22.0868C110.693 21.3454 111.619 20.9751 112.694 20.9751C113.752 20.9751 114.462 21.3553 114.843 22.1239C115.223 22.8926 115.231 23.9588 114.866 25.3226L114.884 25.3235ZM117.907 18.5946C117.101 17.95 116.072 17.6276 114.824 17.6276C113.731 17.6276 112.689 17.8756 111.7 18.3764C110.712 18.8765 109.911 19.5584 109.295 20.4213L109.31 20.3221L110.04 17.9995H105.791L104.708 22.0413L104.675 22.1818L100.212 38.8315H104.568L106.816 30.4504C107.039 31.196 107.494 31.7812 108.188 32.2043C108.882 32.6259 109.74 32.835 110.759 32.835C112.023 32.835 113.23 32.5292 114.375 31.9175C115.524 31.3042 116.515 30.4215 117.359 29.2809C118.202 28.1403 118.827 26.8178 119.227 25.3218C119.632 23.8233 119.714 22.4868 119.483 21.3172C119.247 20.1461 118.726 19.2393 117.921 18.598L117.907 18.5946ZM132.356 25.2639C131.984 26.6442 131.414 27.7022 130.645 28.4296C129.876 29.1619 128.951 29.5264 127.876 29.5264C126.777 29.5264 126.033 29.171 125.645 28.4519C125.248 27.7328 125.24 26.6914 125.603 25.3276C125.967 23.9638 126.547 22.8976 127.349 22.1289C128.151 21.3602 129.089 20.9767 130.165 20.9767C131.239 20.9767 131.967 21.3487 132.347 22.0843C132.727 22.8224 132.73 23.8828 132.359 25.2664L132.356 25.2639ZM134.298 18.0029L133.742 20.0774C133.502 19.3294 133.04 18.7343 132.354 18.2921C131.659 17.8508 130.808 17.6309 129.791 17.6309C128.543 17.6309 127.338 17.9533 126.188 18.598C125.039 19.2427 124.03 20.1469 123.171 21.3172C122.311 22.4876 121.683 23.8216 121.278 25.3177C120.877 26.8195 120.799 28.1361 121.038 29.2817C121.28 30.4223 121.802 31.3034 122.609 31.9184C123.414 32.53 124.452 32.8391 125.716 32.8391C126.733 32.8391 127.704 32.6275 128.626 32.2027C129.524 31.7946 130.323 31.1958 130.967 30.448L130.389 32.6118H134.679L138.595 18.007H134.305L134.298 18.0029ZM156.604 18.0078L156.606 18.0037H153.97C153.885 18.0037 153.811 18.0078 153.734 18.0095H152.366L151.664 18.9848L151.49 19.2162L151.416 19.3319L145.857 27.0749L144.708 18.0078H140.156L142.462 31.7861L137.371 38.8364H141.908L143.14 37.09C143.174 37.0387 143.206 36.9957 143.247 36.9412L144.685 34.8997L144.727 34.8418L151.168 25.7086L156.598 18.0219L156.606 18.0169H156.604V18.0078Z" fill="#A05BF8"/>
</g>
<defs>
<clipPath id="clip0_296_9778">
<rect width="156.662" height="46.7067" fill="white"/>
</clipPath>
</defs>
</svg>
